<svg width="36" height="27" viewBox="0 0 27 26"  fill="none" xmlns="http://www.w3.org/2000/svg">
  <path d="M3.8548 8.62372C2.74843 8.62372 1.82762 8.28761 1.09237 7.61538C0.364123 6.93615 0 6.06436 0 5C0 3.92864 0.364123 3.05684 1.09237 2.38462C1.82061 1.71239 2.74142 1.37628 3.8548 1.37628C4.69508 1.37628 5.37081 1.57234 5.88198 1.96448C6.40016 2.35661 6.78529 2.83977 7.03737 3.41397L5.20976 4.26475C5.11873 3.98466 4.94717 3.74658 4.69508 3.55051C4.443 3.34744 4.1629 3.24591 3.8548 3.24591C3.35063 3.24591 2.94099 3.41397 2.62589 3.75008C2.31078 4.08619 2.15323 4.50283 2.15323 5C2.15323 5.49717 2.31078 5.91381 2.62589 6.24992C2.94099 6.58604 3.35063 6.75409 3.8548 6.75409C4.1629 6.75409 4.443 6.65606 4.69508 6.45999C4.94717 6.25693 5.11873 6.01534 5.20976 5.73525L7.03737 6.57553C6.92534 6.83462 6.78529 7.0762 6.61723 7.30028C6.44918 7.51735 6.2391 7.73092 5.98702 7.94099C5.73493 8.15106 5.42333 8.31912 5.0522 8.44516C4.68808 8.5642 4.28895 8.62372 3.8548 8.62372Z" fill="#84D52C"/>
  <path d="M3.8548 8.62372C2.74843 8.62372 1.82762 8.28761 1.09237 7.61538C0.364123 6.93615 0 6.06436 0 5C0 3.92864 0.364123 3.05684 1.09237 2.38462C1.82061 1.71239 2.74142 1.37628 3.8548 1.37628C4.69508 1.37628 5.37081 1.57234 5.88198 1.96448C6.40016 2.35661 6.78529 2.83977 7.03737 3.41397L5.20976 4.26475C5.11873 3.98466 4.94717 3.74658 4.69508 3.55051C4.443 3.34744 4.1629 3.24591 3.8548 3.24591C3.35063 3.24591 2.94099 3.41397 2.62589 3.75008C2.31078 4.08619 2.15323 4.50283 2.15323 5C2.15323 5.49717 2.31078 5.91381 2.62589 6.24992C2.94099 6.58604 3.35063 6.75409 3.8548 6.75409C4.1629 6.75409 4.443 6.65606 4.69508 6.45999C4.94717 6.25693 5.11873 6.01534 5.20976 5.73525L7.03737 6.57553C6.92534 6.83462 6.78529 7.0762 6.61723 7.30028C6.44918 7.51735 6.2391 7.73092 5.98702 7.94099C5.73493 8.15106 5.42333 8.31912 5.0522 8.44516C4.68808 8.5642 4.28895 8.62372 3.8548 8.62372Z" fill="url(#paint0_linear_5504_1134)" fill-opacity="0.2"/>
  <path d="M12.1029 8.49768H7.70189V1.49182H11.9558C12.628 1.49182 13.1427 1.67388 13.4998 2.038C13.857 2.40212 14.0355 2.81526 14.0355 3.27742C14.0355 3.70456 13.9235 4.06168 13.6994 4.34878C13.4753 4.62888 13.1882 4.80744 12.8381 4.88446C13.2233 4.94048 13.5419 5.12954 13.7939 5.45165C14.046 5.76676 14.1721 6.14839 14.1721 6.59654C14.1721 7.12172 13.9935 7.56987 13.6364 7.94099C13.2793 8.31212 12.7681 8.49768 12.1029 8.49768ZM11.4622 4.07569C11.5742 4.07569 11.6722 4.03718 11.7563 3.96015C11.8403 3.87612 11.8823 3.77459 11.8823 3.65555C11.8823 3.53651 11.8403 3.44198 11.7563 3.37195C11.6722 3.29493 11.5742 3.25641 11.4622 3.25641H9.8236V4.07569H11.4622ZM11.5252 6.73309C11.6792 6.73309 11.7983 6.69457 11.8823 6.61755C11.9733 6.53352 12.0188 6.42498 12.0188 6.29194C12.0188 6.16589 11.9733 6.06086 11.8823 5.97683C11.7913 5.8858 11.6722 5.84028 11.5252 5.84028H9.8236V6.73309H11.5252Z" fill="#84D52C"/>
  <path d="M12.1029 8.49768H7.70189V1.49182H11.9558C12.628 1.49182 13.1427 1.67388 13.4998 2.038C13.857 2.40212 14.0355 2.81526 14.0355 3.27742C14.0355 3.70456 13.9235 4.06168 13.6994 4.34878C13.4753 4.62888 13.1882 4.80744 12.8381 4.88446C13.2233 4.94048 13.5419 5.12954 13.7939 5.45165C14.046 5.76676 14.1721 6.14839 14.1721 6.59654C14.1721 7.12172 13.9935 7.56987 13.6364 7.94099C13.2793 8.31212 12.7681 8.49768 12.1029 8.49768ZM11.4622 4.07569C11.5742 4.07569 11.6722 4.03718 11.7563 3.96015C11.8403 3.87612 11.8823 3.77459 11.8823 3.65555C11.8823 3.53651 11.8403 3.44198 11.7563 3.37195C11.6722 3.29493 11.5742 3.25641 11.4622 3.25641H9.8236V4.07569H11.4622ZM11.5252 6.73309C11.6792 6.73309 11.7983 6.69457 11.8823 6.61755C11.9733 6.53352 12.0188 6.42498 12.0188 6.29194C12.0188 6.16589 11.9733 6.06086 11.8823 5.97683C11.7913 5.8858 11.6722 5.84028 11.5252 5.84028H9.8236V6.73309H11.5252Z" fill="url(#paint1_linear_5504_1134)" fill-opacity="0.2"/>
  <path d="M18.1662 8.49768H15.0256V1.49182H18.1557C19.2901 1.49182 20.2144 1.80342 20.9286 2.42663C21.6429 3.04284 22 3.89713 22 4.9895C22 6.08187 21.6429 6.93966 20.9286 7.56287C20.2144 8.18608 19.2936 8.49768 18.1662 8.49768ZM18.1557 6.64906C18.6669 6.64906 19.0765 6.488 19.3846 6.16589C19.6927 5.84379 19.8468 5.45165 19.8468 4.9895C19.8468 4.49233 19.7032 4.09319 19.4161 3.79209C19.129 3.49099 18.7124 3.34044 18.1662 3.34044H17.1474V6.64906H18.1557Z" fill="#84D52C"/>
  <path d="M27.1662 15.4977C28.345 15.4977 29.3268 15.1108 30.1107 14.3371C30.8872 13.5582 31.2754 12.5548 31.2754 11.3317C31.2754 10.116 30.8872 9.11269 30.1107 8.33901C29.3268 7.5663 28.345 7.17943 27.1662 7.17943C26.2603 7.17943 25.5398 7.4051 24.9948 7.85643C24.4423 8.30778 24.0317 8.86389 23.7629 9.52478L25.7116 10.5041C25.8087 10.7921 25.9916 11.0662 26.2604 11.2929C26.5282 11.5267 26.8268 11.6436 27.1662 11.6436C27.7038 11.6436 28.1407 11.4502 28.4766 11.0633C28.8125 10.6765 28.9805 10.1979 28.9805 9.62566C28.9805 9.05342 28.8125 8.57486 28.4766 8.18797C28.1407 7.80108 27.7038 7.60768 27.1662 7.60768C26.8268 7.60768 26.5282 7.72462 26.2604 7.95028C25.9916 8.17595 25.8087 8.44995 25.7116 8.73796L23.7629 9.7051C23.8822 10.0023 24.0317 10.2804 24.2107 10.5301C24.3895 10.7729 24.6138 11.0186 24.8825 11.2606C25.1511 11.5025 25.4834 11.6868 25.8794 11.8319C26.2647 11.9782 26.6906 12.0466 27.1662 12.0466Z" fill="url(#paint2_linear_5535_1137)" fill-opacity="0.2"/>
    <g filter="url(#filter0_d_5535_1137)">
    <path d="M27.8716 9.1708L25.4676 11.7402L26.2725 13.051L22.3118 16.2025M22.1838 14.2037L22.3314 16.4967M24.2902 16.1565L21.8323 15.8462" stroke="#7ACB22" stroke-width="1.06906" shape-rendering="crispEdges"/>
  </g>
</svg>
