<svg width="36" height="27" viewBox="0 0 27 26" fill="none" xmlns="http://www.w3.org/2000/svg">
  <path d="M4.26689 9.02576H2.00465V3.08988H0V0.962153H6.26034V3.08988H4.26689V9.02576Z" fill="#84D52C"/>
  <path d="M4.26689 9.02576H2.00465V3.08988H0V0.962153H6.26034V3.08988H4.26689V9.02576Z" fill="url(#paint0_linear_5535_1137)" fill-opacity="0.2"/>
  <path d="M14.2647 9.02576H12.0025V5.94297H9.32585V9.02576H7.06362V0.962153H9.32585V3.81524H12.0025V0.962153H14.2647V9.02576Z" fill="#84D52C"/>
  <path d="M14.2647 9.02576H12.0025V5.94297H9.32585V9.02576H7.06362V0.962153H9.32585V3.81524H12.0025V0.962153H14.2647V9.02576Z" fill="url(#paint1_linear_5535_1137)" fill-opacity="0.2"/>
  <path d="M19.1809 9.17083C18.0012 9.17083 17.0194 8.78397 16.2355 8.01025C15.459 7.22847 15.0708 6.22505 15.0708 5C15.0708 3.76688 15.459 2.76347 16.2355 1.98975C17.012 1.21603 17.9938 0.82917 19.1809 0.82917C20.0768 0.82917 20.7973 1.05484 21.3423 1.50617C21.8948 1.95751 22.3054 2.51362 22.5742 3.17451L20.6256 4.15374C20.5285 3.83136 20.3456 3.55734 20.0768 3.33167C19.808 3.09794 19.5094 2.98108 19.1809 2.98108C18.6433 2.98108 18.2065 3.17451 17.8706 3.56137C17.5346 3.94822 17.3666 4.42777 17.3666 5C17.3666 5.57223 17.5346 6.05177 17.8706 6.43863C18.2065 6.82549 18.6433 7.01892 19.1809 7.01892C19.5094 7.01892 19.808 6.90609 20.0768 6.68042C20.3456 6.44669 20.5285 6.16864 20.6256 5.84625L22.5742 6.8134C22.4548 7.11161 22.3054 7.38966 22.1263 7.64757C21.9471 7.89742 21.7231 8.14323 21.4543 8.38502C21.1855 8.62681 20.8533 8.82024 20.4576 8.96531C20.0693 9.10232 19.6438 9.17083 19.1809 9.17083Z" fill="#84D52C"/>
  <path d="M27.1662 15.4977C28.345 15.4977 29.3268 15.1108 30.1107 14.3371C30.8872 13.5582 31.2754 12.5548 31.2754 11.3317C31.2754 10.116 30.8872 9.11269 30.1107 8.33901C29.3268 7.5663 28.345 7.17943 27.1662 7.17943C26.2603 7.17943 25.5398 7.4051 24.9948 7.85643C24.4423 8.30778 24.0317 8.86389 23.7629 9.52478L25.7116 10.5041C25.8087 10.7921 25.9916 11.0662 26.2604 11.2929C26.5282 11.5267 26.8268 11.6436 27.1662 11.6436C27.7038 11.6436 28.1407 11.4502 28.4766 11.0633C28.8125 10.6765 28.9805 10.1979 28.9805 9.62566C28.9805 9.05342 28.8125 8.57486 28.4766 8.18797C28.1407 7.80108 27.7038 7.60768 27.1662 7.60768C26.8268 7.60768 26.5282 7.72462 26.2604 7.95028C25.9916 8.17595 25.8087 8.44995 25.7116 8.73796L23.7629 9.7051C23.8822 10.0023 24.0317 10.2804 24.2107 10.5301C24.3895 10.7729 24.6138 11.0186 24.8825 11.2606C25.1511 11.5025 25.4834 11.6868 25.8794 11.8319C26.2647 11.9782 26.6906 12.0466 27.1662 12.0466Z" fill="url(#paint2_linear_5535_1137)" fill-opacity="0.2"/>
    <g filter="url(#filter0_d_5535_1137)">
    <path d="M27.8716 9.1708L25.4676 11.7402L26.2725 13.051L22.3118 16.2025M22.1838 14.2037L22.3314 16.4967M24.2902 16.1565L21.8323 15.8462" stroke="#7ACB22" stroke-width="1.06906" shape-rendering="crispEdges"/>
  </g>
</svg>
